solid B6D7
facet normal -1 0 0
  outer loop
    vertex 34.92499923706055 80.16874694824219 0
    vertex 34.92499923706055 76.99375152587891 -4.687315940856934
    vertex 34.92499923706055 76.99375152587891 0
  endloop
endfacet
facet normal -1 0 0
  outer loop
    vertex 34.92499923706055 76.99375152587891 -4.687315940856934
    vertex 34.92499923706055 73.81874847412109 -7.9375
    vertex 34.92499923706055 73.81874847412109 -4.762499809265137
  endloop
endfacet
facet normal -1 0 0
  outer loop
    vertex 34.92499923706055 73.81874847412109 -7.9375
    vertex 34.92499923706055 76.99375152587891 -4.687315940856934
    vertex 34.92499923706055 80.16874694824219 -7.9375
  endloop
endfacet
facet normal -1 0 0
  outer loop
    vertex 34.92499923706055 80.16874694824219 -7.9375
    vertex 34.92499923706055 76.99375152587891 -4.687315940856934
    vertex 34.92499923706055 80.16874694824219 0
  endloop
endfacet
facet normal 0 -1 0
  outer loop
    vertex 53.97499847412109 76.99375152587891 0
    vertex 34.92499923706055 76.99375152587891 -4.687315940856934
    vertex 53.97499847412109 76.99375152587891 -4.687315940856934
  endloop
endfacet
facet normal 0 -1 0
  outer loop
    vertex 34.92499923706055 76.99375152587891 -4.687315940856934
    vertex 53.97499847412109 76.99375152587891 0
    vertex 34.92499923706055 76.99375152587891 0
  endloop
endfacet
facet normal 0 1 0
  outer loop
    vertex 34.92499923706055 80.16874694824219 0
    vertex 53.97499847412109 80.16874694824219 -7.9375
    vertex 34.92499923706055 80.16874694824219 -7.9375
  endloop
endfacet
facet normal 0 1 0
  outer loop
    vertex 53.97499847412109 80.16874694824219 -7.9375
    vertex 34.92499923706055 80.16874694824219 0
    vertex 53.97499847412109 80.16874694824219 0
  endloop
endfacet
facet normal 1 0 0
  outer loop
    vertex 53.97499847412109 80.16874694824219 -7.9375
    vertex 53.97499847412109 73.81874847412109 -4.762499809265137
    vertex 53.97499847412109 73.81874847412109 -7.9375
  endloop
endfacet
facet normal 1 0 0
  outer loop
    vertex 53.97499847412109 73.81874847412109 -4.762499809265137
    vertex 53.97499847412109 80.16874694824219 -7.9375
    vertex 53.97499847412109 76.99375152587891 -4.687315940856934
  endloop
endfacet
facet normal 1 0 0
  outer loop
    vertex 53.97499847412109 76.99375152587891 -4.687315940856934
    vertex 53.97499847412109 80.16874694824219 -7.9375
    vertex 53.97499847412109 76.99375152587891 0
  endloop
endfacet
facet normal 1 0 0
  outer loop
    vertex 53.97499847412109 76.99375152587891 0
    vertex 53.97499847412109 80.16874694824219 -7.9375
    vertex 53.97499847412109 80.16874694824219 0
  endloop
endfacet
facet normal 0 -0.02367342822253704 0.9997197389602661
  outer loop
    vertex 53.97499847412109 73.81874847412109 -4.762499809265137
    vertex 34.92499923706055 76.99375152587891 -4.687315940856934
    vertex 34.92499923706055 73.81874847412109 -4.762499809265137
  endloop
endfacet
facet normal 0 -0.02367342822253704 0.9997197389602661
  outer loop
    vertex 34.92499923706055 76.99375152587891 -4.687315940856934
    vertex 53.97499847412109 73.81874847412109 -4.762499809265137
    vertex 53.97499847412109 76.99375152587891 -4.687315940856934
  endloop
endfacet
facet normal 0 -1 0
  outer loop
    vertex 53.97499847412109 73.81874847412109 -4.762499809265137
    vertex 34.92499923706055 73.81874847412109 -7.9375
    vertex 53.97499847412109 73.81874847412109 -7.9375
  endloop
endfacet
facet normal 0 -1 0
  outer loop
    vertex 34.92499923706055 73.81874847412109 -7.9375
    vertex 53.97499847412109 73.81874847412109 -4.762499809265137
    vertex 34.92499923706055 73.81874847412109 -4.762499809265137
  endloop
endfacet
facet normal 0 0 -1
  outer loop
    vertex 53.97499847412109 80.16874694824219 -7.9375
    vertex 34.92499923706055 73.81874847412109 -7.9375
    vertex 34.92499923706055 80.16874694824219 -7.9375
  endloop
endfacet
facet normal 0 0 -1
  outer loop
    vertex 34.92499923706055 73.81874847412109 -7.9375
    vertex 53.97499847412109 80.16874694824219 -7.9375
    vertex 53.97499847412109 73.81874847412109 -7.9375
  endloop
endfacet
facet normal 0 0 1
  outer loop
    vertex 53.97499847412109 76.99375152587891 0
    vertex 34.92499923706055 80.16874694824219 0
    vertex 34.92499923706055 76.99375152587891 0
  endloop
endfacet
facet normal 0 0 1
  outer loop
    vertex 34.92499923706055 80.16874694824219 0
    vertex 53.97499847412109 76.99375152587891 0
    vertex 53.97499847412109 80.16874694824219 0
  endloop
endfacet
facet normal 0 1 0
  outer loop
    vertex 0 101.5999984741211 3.174999952316284
    vertex 88.90000152587891 101.5999984741211 0
    vertex 0 101.5999984741211 0
  endloop
endfacet
facet normal 0 1 0
  outer loop
    vertex 88.90000152587891 101.5999984741211 0
    vertex 0 101.5999984741211 3.174999952316284
    vertex 88.90000152587891 101.5999984741211 3.174999952316284
  endloop
endfacet
facet normal 0 -1 0
  outer loop
    vertex 88.90000152587891 76.99375152587891 3.174999952316284
    vertex 63.5 76.99375152587891 0
    vertex 88.90000152587891 76.99375152587891 0
  endloop
endfacet
facet normal 0 -1 0
  outer loop
    vertex 63.5 76.99375152587891 0
    vertex 88.90000152587891 76.99375152587891 3.174999952316284
    vertex 63.5 76.99375152587891 3.174999952316284
  endloop
endfacet
facet normal 0 0 -1
  outer loop
    vertex 0 101.5999984741211 0
    vertex 25.39999961853027 76.19999694824219 0
    vertex 0 0 0
  endloop
endfacet
facet normal 0 0 -1
  outer loop
    vertex 25.39999961853027 76.19999694824219 0
    vertex 0 101.5999984741211 0
    vertex 88.90000152587891 101.5999984741211 0
  endloop
endfacet
facet normal 0 0 -1
  outer loop
    vertex 25.39999961853027 76.19999694824219 0
    vertex 88.90000152587891 101.5999984741211 0
    vertex 63.5 76.99375152587891 0
  endloop
endfacet
facet normal 0 0 -1
  outer loop
    vertex 63.5 76.99375152587891 0
    vertex 88.90000152587891 101.5999984741211 0
    vertex 88.90000152587891 76.99375152587891 0
  endloop
endfacet
facet normal 0 0 -1
  outer loop
    vertex 0 0 0
    vertex 25.39999961853027 28.57500076293945 0
    vertex 50.79999923706055 0 0
  endloop
endfacet
facet normal 0 0 -1
  outer loop
    vertex 25.39999961853027 28.57500076293945 0
    vertex 0 0 0
    vertex 25.39999961853027 76.19999694824219 0
  endloop
endfacet
facet normal 0 0 -1
  outer loop
    vertex 50.79999923706055 0 0
    vertex 25.39999961853027 28.57500076293945 0
    vertex 50.79999923706055 28.57500076293945 0
  endloop
endfacet
facet normal 0 0 1
  outer loop
    vertex 0 0 3.174999952316284
    vertex 25.39999961853027 28.57500076293945 3.174999952316284
    vertex 0 101.5999984741211 3.174999952316284
  endloop
endfacet
facet normal 0 0 1
  outer loop
    vertex 25.39999961853027 28.57500076293945 3.174999952316284
    vertex 0 0 3.174999952316284
    vertex 50.79999923706055 0 3.174999952316284
  endloop
endfacet
facet normal 0 0 1
  outer loop
    vertex 25.39999961853027 28.57500076293945 3.174999952316284
    vertex 50.79999923706055 0 3.174999952316284
    vertex 50.79999923706055 28.57500076293945 3.174999952316284
  endloop
endfacet
facet normal 0 0 1
  outer loop
    vertex 0 101.5999984741211 3.174999952316284
    vertex 25.39999961853027 76.19999694824219 3.174999952316284
    vertex 88.90000152587891 101.5999984741211 3.174999952316284
  endloop
endfacet
facet normal 0 0 1
  outer loop
    vertex 25.39999961853027 76.19999694824219 3.174999952316284
    vertex 0 101.5999984741211 3.174999952316284
    vertex 25.39999961853027 28.57500076293945 3.174999952316284
  endloop
endfacet
facet normal 0 0 1
  outer loop
    vertex 88.90000152587891 101.5999984741211 3.174999952316284
    vertex 25.39999961853027 76.19999694824219 3.174999952316284
    vertex 63.5 76.99375152587891 3.174999952316284
  endloop
endfacet
facet normal 0 0 1
  outer loop
    vertex 88.90000152587891 101.5999984741211 3.174999952316284
    vertex 63.5 76.99375152587891 3.174999952316284
    vertex 88.90000152587891 76.99375152587891 3.174999952316284
  endloop
endfacet
facet normal 0 -1 0
  outer loop
    vertex 50.79999923706055 0 3.174999952316284
    vertex 0 0 0
    vertex 50.79999923706055 0 0
  endloop
endfacet
facet normal 0 -1 0
  outer loop
    vertex 0 0 0
    vertex 50.79999923706055 0 3.174999952316284
    vertex 0 0 3.174999952316284
  endloop
endfacet
facet normal -1 0 0
  outer loop
    vertex 0 101.5999984741211 3.174999952316284
    vertex 0 0 0
    vertex 0 0 3.174999952316284
  endloop
endfacet
facet normal -1 0 0
  outer loop
    vertex 0 0 0
    vertex 0 101.5999984741211 3.174999952316284
    vertex 0 101.5999984741211 0
  endloop
endfacet
facet normal 1 0 0
  outer loop
    vertex 88.90000152587891 101.5999984741211 0
    vertex 88.90000152587891 76.99375152587891 3.174999952316284
    vertex 88.90000152587891 76.99375152587891 0
  endloop
endfacet
facet normal 1 0 0
  outer loop
    vertex 88.90000152587891 76.99375152587891 3.174999952316284
    vertex 88.90000152587891 101.5999984741211 0
    vertex 88.90000152587891 101.5999984741211 3.174999952316284
  endloop
endfacet
facet normal 1 0 0
  outer loop
    vertex 25.39999961853027 76.19999694824219 0
    vertex 25.39999961853027 28.57500076293945 3.174999952316284
    vertex 25.39999961853027 28.57500076293945 0
  endloop
endfacet
facet normal 1 0 0
  outer loop
    vertex 25.39999961853027 28.57500076293945 3.174999952316284
    vertex 25.39999961853027 76.19999694824219 0
    vertex 25.39999961853027 76.19999694824219 3.174999952316284
  endloop
endfacet
facet normal 0.02082881331443787 -0.9997830390930176 4.422585334230297e-16
  outer loop
    vertex 63.5 76.99375152587891 3.174999952316284
    vertex 25.39999961853027 76.19999694824219 0
    vertex 63.5 76.99375152587891 0
  endloop
endfacet
facet normal 0.02082881331443787 -0.9997830390930176 4.422585334230297e-16
  outer loop
    vertex 25.39999961853027 76.19999694824219 0
    vertex 63.5 76.99375152587891 3.174999952316284
    vertex 25.39999961853027 76.19999694824219 3.174999952316284
  endloop
endfacet
facet normal 1 0 0
  outer loop
    vertex 50.79999923706055 28.57500076293945 0
    vertex 50.79999923706055 0 3.174999952316284
    vertex 50.79999923706055 0 0
  endloop
endfacet
facet normal 1 0 0
  outer loop
    vertex 50.79999923706055 0 3.174999952316284
    vertex 50.79999923706055 28.57500076293945 0
    vertex 50.79999923706055 28.57500076293945 3.174999952316284
  endloop
endfacet
facet normal 0 1 0
  outer loop
    vertex 25.39999961853027 28.57500076293945 3.174999952316284
    vertex 50.79999923706055 28.57500076293945 0
    vertex 25.39999961853027 28.57500076293945 0
  endloop
endfacet
facet normal 0 1 0
  outer loop
    vertex 50.79999923706055 28.57500076293945 0
    vertex 25.39999961853027 28.57500076293945 3.174999952316284
    vertex 50.79999923706055 28.57500076293945 3.174999952316284
  endloop
endfacet
endsolid B6D7
